<svg width="115" height="42" viewBox="0 0 115 42" fill="none" xmlns="http://www.w3.org/2000/svg">
<path d="M110.295 15.0734H109.882V12.1171H108.896V11.7437H111.281V12.1171H110.295V15.0734Z" fill="#283163"/>
<path d="M113.188 15.0734L112.171 12.1483H112.139C112.139 12.2416 112.171 12.3661 112.171 12.5528C112.171 12.7084 112.171 12.8951 112.171 13.0507V15.0734H111.789V11.7437H112.393L113.347 14.4822H113.379L114.364 11.7437H115V15.0734H114.587V13.0196C114.587 12.864 114.587 12.7084 114.587 12.5528C114.587 12.3972 114.587 12.2727 114.619 12.1794H114.587L113.538 15.1045H113.188V15.0734Z" fill="#283163"/>
<path d="M54.3989 14.3011H56.3833L59.3052 22.6526L62.2271 14.3011H64.2114L60.1021 25.6761H58.5083L54.3989 14.3011ZM53.3286 14.3011H55.3052L55.6646 22.4417V25.6761H53.3286V14.3011ZM63.3052 14.3011H65.2896V25.6761H62.9458V22.4417L63.3052 14.3011ZM66.8442 21.5355V21.3714C66.8442 20.7516 66.9328 20.1813 67.1099 19.6605C67.2869 19.1344 67.5448 18.6787 67.8833 18.2933C68.2218 17.9079 68.6385 17.6084 69.1333 17.3948C69.6281 17.1761 70.1958 17.0667 70.8364 17.0667C71.4771 17.0667 72.0474 17.1761 72.5474 17.3948C73.0474 17.6084 73.4666 17.9079 73.8052 18.2933C74.1489 18.6787 74.4093 19.1344 74.5864 19.6605C74.7635 20.1813 74.8521 20.7516 74.8521 21.3714V21.5355C74.8521 22.15 74.7635 22.7204 74.5864 23.2464C74.4093 23.7672 74.1489 24.223 73.8052 24.6136C73.4666 24.999 73.05 25.2985 72.5552 25.512C72.0604 25.7256 71.4927 25.8323 70.8521 25.8323C70.2114 25.8323 69.6411 25.7256 69.1411 25.512C68.6463 25.2985 68.2271 24.999 67.8833 24.6136C67.5448 24.223 67.2869 23.7672 67.1099 23.2464C66.9328 22.7204 66.8442 22.15 66.8442 21.5355ZM69.0942 21.3714V21.5355C69.0942 21.8896 69.1255 22.2204 69.188 22.5276C69.2505 22.8349 69.3494 23.1058 69.4849 23.3401C69.6255 23.5693 69.8078 23.749 70.0317 23.8792C70.2557 24.0094 70.5291 24.0745 70.8521 24.0745C71.1646 24.0745 71.4328 24.0094 71.6567 23.8792C71.8807 23.749 72.0604 23.5693 72.1958 23.3401C72.3312 23.1058 72.4302 22.8349 72.4927 22.5276C72.5604 22.2204 72.5942 21.8896 72.5942 21.5355V21.3714C72.5942 21.0276 72.5604 20.7047 72.4927 20.4026C72.4302 20.0954 72.3286 19.8245 72.188 19.5901C72.0526 19.3506 71.8729 19.1631 71.6489 19.0276C71.425 18.8922 71.1541 18.8245 70.8364 18.8245C70.5187 18.8245 70.2479 18.8922 70.0239 19.0276C69.8052 19.1631 69.6255 19.3506 69.4849 19.5901C69.3494 19.8245 69.2505 20.0954 69.188 20.4026C69.1255 20.7047 69.0942 21.0276 69.0942 21.3714ZM80.8052 23.3401C80.8052 23.1787 80.7583 23.0329 80.6646 22.9026C80.5708 22.7724 80.3963 22.6526 80.1411 22.5433C79.8911 22.4287 79.5291 22.3245 79.0552 22.2308C78.6281 22.137 78.2297 22.0198 77.8599 21.8792C77.4953 21.7334 77.1776 21.5589 76.9067 21.3558C76.6411 21.1526 76.4328 20.9131 76.2817 20.637C76.1307 20.3558 76.0552 20.0355 76.0552 19.6761C76.0552 19.3219 76.1307 18.9886 76.2817 18.6761C76.438 18.3636 76.6593 18.0875 76.9458 17.848C77.2375 17.6032 77.5916 17.4131 78.0083 17.2776C78.4302 17.137 78.9041 17.0667 79.4302 17.0667C80.1646 17.0667 80.7948 17.1839 81.3208 17.4183C81.8521 17.6526 82.2583 17.9756 82.5396 18.387C82.826 18.7933 82.9692 19.2568 82.9692 19.7776H80.7192C80.7192 19.5589 80.6724 19.3636 80.5786 19.1917C80.4901 19.0146 80.3494 18.8766 80.1567 18.7776C79.9692 18.6735 79.7244 18.6214 79.4224 18.6214C79.1724 18.6214 78.9562 18.6657 78.7739 18.7542C78.5916 18.8375 78.451 18.9521 78.3521 19.098C78.2583 19.2386 78.2114 19.3948 78.2114 19.5667C78.2114 19.6969 78.2375 19.8141 78.2896 19.9183C78.3468 20.0172 78.438 20.1084 78.563 20.1917C78.688 20.275 78.8494 20.3532 79.0474 20.4261C79.2505 20.4938 79.5005 20.5563 79.7974 20.6136C80.4067 20.7386 80.951 20.9026 81.4302 21.1058C81.9093 21.3037 82.2896 21.5745 82.5708 21.9183C82.8521 22.2568 82.9927 22.7021 82.9927 23.2542C82.9927 23.6292 82.9093 23.973 82.7427 24.2855C82.576 24.598 82.3364 24.8714 82.0239 25.1058C81.7114 25.3349 81.3364 25.5146 80.8989 25.6448C80.4666 25.7698 79.9797 25.8323 79.438 25.8323C78.6515 25.8323 77.9849 25.6917 77.438 25.4105C76.8963 25.1292 76.4849 24.7724 76.2036 24.3401C75.9276 23.9026 75.7896 23.4547 75.7896 22.9964H77.9224C77.9328 23.3037 78.0109 23.5511 78.1567 23.7386C78.3078 23.9261 78.4979 24.0615 78.7271 24.1448C78.9614 24.2282 79.214 24.2698 79.4849 24.2698C79.7765 24.2698 80.0187 24.2308 80.2114 24.1526C80.4041 24.0693 80.55 23.9599 80.6489 23.8245C80.7531 23.6839 80.8052 23.5224 80.8052 23.3401ZM85.7349 13.6761V25.6761H84.8052V13.6761H85.7349ZM91.0396 17.223L87.0864 21.1448L85.4067 22.7698L85.2661 21.8558L86.6177 20.3948L89.8599 17.223H91.0396ZM90.2271 25.6761L86.6958 21.2855L87.2114 20.4808L91.3521 25.6761H90.2271ZM92.1333 21.5823V21.3245C92.1333 20.7099 92.2218 20.1422 92.3989 19.6214C92.576 19.1006 92.8286 18.65 93.1567 18.2698C93.4901 17.8896 93.8885 17.5954 94.3521 17.387C94.8156 17.1735 95.3312 17.0667 95.8989 17.0667C96.4718 17.0667 96.9901 17.1735 97.4536 17.387C97.9172 17.5954 98.3156 17.8896 98.6489 18.2698C98.9823 18.65 99.2375 19.1006 99.4146 19.6214C99.5916 20.1422 99.6802 20.7099 99.6802 21.3245V21.5823C99.6802 22.1969 99.5916 22.7646 99.4146 23.2855C99.2375 23.8011 98.9823 24.249 98.6489 24.6292C98.3208 25.0094 97.925 25.3063 97.4614 25.5198C96.9979 25.7282 96.4823 25.8323 95.9146 25.8323C95.3416 25.8323 94.8234 25.7282 94.3599 25.5198C93.8963 25.3063 93.4979 25.0094 93.1646 24.6292C92.8312 24.249 92.576 23.8011 92.3989 23.2855C92.2218 22.7646 92.1333 22.1969 92.1333 21.5823ZM93.063 21.3245V21.5823C93.063 22.0459 93.1255 22.486 93.2505 22.9026C93.3755 23.3141 93.5578 23.6813 93.7974 24.0042C94.0369 24.3219 94.3338 24.5719 94.688 24.7542C95.0422 24.9365 95.451 25.0276 95.9146 25.0276C96.3729 25.0276 96.7765 24.9365 97.1255 24.7542C97.4797 24.5719 97.7765 24.3219 98.0161 24.0042C98.2557 23.6813 98.4354 23.3141 98.5552 22.9026C98.6802 22.486 98.7427 22.0459 98.7427 21.5823V21.3245C98.7427 20.8662 98.6802 20.4313 98.5552 20.0198C98.4354 19.6084 98.2531 19.2412 98.0083 18.9183C97.7687 18.5954 97.4718 18.3401 97.1177 18.1526C96.7635 17.9651 96.3573 17.8714 95.8989 17.8714C95.4406 17.8714 95.0343 17.9651 94.6802 18.1526C94.3312 18.3401 94.0343 18.5954 93.7896 18.9183C93.55 19.2412 93.3677 19.6084 93.2427 20.0198C93.1229 20.4313 93.063 20.8662 93.063 21.3245ZM104.813 17.223V17.9886H100.579V17.223H104.813ZM102.133 15.0511H103.063V23.6214C103.063 24.012 103.115 24.3063 103.219 24.5042C103.323 24.7021 103.459 24.8349 103.625 24.9026C103.792 24.9704 103.972 25.0042 104.165 25.0042C104.305 25.0042 104.441 24.9964 104.571 24.9808C104.701 24.9599 104.818 24.9391 104.922 24.9183L104.961 25.7073C104.847 25.7438 104.698 25.7724 104.516 25.7933C104.334 25.8193 104.152 25.8323 103.969 25.8323C103.61 25.8323 103.292 25.7672 103.016 25.637C102.74 25.5016 102.524 25.2724 102.368 24.9495C102.211 24.6214 102.133 24.1761 102.133 23.6136V15.0511Z" fill="#283163"/>
<rect x="0.5" y="0.5" width="40.6368" height="40.6368" rx="2.5" stroke="#283163"/>
<path d="M25.3265 26.7561C25.3532 26.8361 25.3799 26.9094 25.4065 26.9761C25.4332 27.0428 25.4532 27.1161 25.4665 27.1961C25.4932 27.2761 25.5065 27.3494 25.5065 27.4161C25.5065 27.5094 25.4732 27.5828 25.4065 27.6361C25.3399 27.7028 25.2599 27.7561 25.1665 27.7961C25.0865 27.8361 25.0065 27.8628 24.9265 27.8761C24.8465 27.8894 24.7999 27.8961 24.7865 27.8961C24.7065 27.8961 24.5599 27.6494 24.3465 27.1561C24.1332 26.6761 23.8999 25.9961 23.6465 25.1161C23.4065 24.2361 23.1599 23.1894 22.9065 21.9761C22.6532 20.7628 22.4465 19.4294 22.2865 17.9761C22.2599 18.2828 22.2065 18.6428 22.1265 19.0561C22.0599 19.4561 21.9532 19.8361 21.8065 20.1961C21.6599 20.5561 21.4665 20.8628 21.2265 21.1161C20.9999 21.3561 20.7065 21.4761 20.3465 21.4761C20.0932 21.4761 19.8065 21.3428 19.4865 21.0761C19.1665 20.8094 18.8532 20.4961 18.5465 20.1361C18.2532 19.7628 17.9799 19.3894 17.7265 19.0161C17.4865 18.6294 17.3065 18.3161 17.1865 18.0761C17.2399 18.6628 17.3265 19.3694 17.4465 20.1961C17.5799 21.0228 17.7799 21.8961 18.0465 22.8161C18.0732 22.9094 18.0999 22.9828 18.1265 23.0361C18.1665 23.0761 18.1999 23.1228 18.2265 23.1761C18.2665 23.2294 18.2932 23.2894 18.3065 23.3561C18.3332 23.4094 18.3465 23.4961 18.3465 23.6161C18.3465 23.7894 18.2799 23.9161 18.1465 23.9961C18.0132 24.0761 17.8865 24.1161 17.7665 24.1161C17.6999 24.1161 17.6132 24.0161 17.5065 23.8161C17.3999 23.6028 17.2865 23.3294 17.1665 22.9961C17.0465 22.6628 16.9265 22.2961 16.8065 21.8961C16.6865 21.4828 16.5732 21.0761 16.4665 20.6761C16.3732 20.2761 16.2932 19.9028 16.2265 19.5561C16.1599 19.1961 16.1265 18.9094 16.1265 18.6961C16.1265 18.3494 16.1399 18.1094 16.1665 17.9761C16.2065 17.8428 16.2599 17.7428 16.3265 17.6761V16.4561C16.3265 16.2694 16.3732 16.1294 16.4665 16.0361C16.5732 15.9294 16.7065 15.8761 16.8665 15.8761C16.9999 15.8761 17.1532 15.9894 17.3265 16.2161C17.4999 16.4428 17.6865 16.7294 17.8865 17.0761C18.0999 17.4228 18.3199 17.7961 18.5465 18.1961C18.7732 18.5961 18.9932 18.9694 19.2065 19.3161C19.4332 19.6628 19.6465 19.9494 19.8465 20.1761C20.0599 20.4028 20.2599 20.5161 20.4465 20.5161C20.6199 20.5161 20.7865 20.3561 20.9465 20.0361C21.1065 19.7028 21.2532 19.2694 21.3865 18.7361C21.5332 18.2028 21.6599 17.5961 21.7665 16.9161C21.8732 16.2361 21.9599 15.5428 22.0265 14.8361C22.0265 14.7561 22.0199 14.6694 22.0065 14.5761C21.9932 14.4694 21.9865 14.3561 21.9865 14.2361C21.9865 14.0761 22.0199 13.9028 22.0865 13.7161C22.1665 13.5294 22.3132 13.4361 22.5265 13.4361C22.6465 13.4361 22.7399 13.4694 22.8065 13.5361C22.8865 13.6028 22.9399 13.6894 22.9665 13.7961C22.9932 13.8894 23.0065 13.9894 23.0065 14.0961C23.0199 14.1894 23.0265 14.2694 23.0265 14.3361C23.0265 14.4428 23.0132 14.6228 22.9865 14.8761C22.9732 15.1161 22.9665 15.4894 22.9665 15.9961C22.9665 16.4361 22.9999 16.9494 23.0665 17.5361C23.1332 18.1094 23.2199 18.7228 23.3265 19.3761C23.4465 20.0161 23.5799 20.6828 23.7265 21.3761C23.8865 22.0561 24.0532 22.7228 24.2265 23.3761C24.4132 24.0294 24.5932 24.6494 24.7665 25.2361C24.9532 25.8094 25.1399 26.3161 25.3265 26.7561Z" fill="#283163"/>
</svg>
